:FULLY-SPECIFIED
:FORCE-ALL-JOINTS-BE-3DOF
:DEGREES
437
root 10.515 17.2105 25.6304 7.89446 -1.89664 -0.44403
lfemur -33.0431 4.09837 -24.8795
ltibia 31.7652 -0 0
lfoot -6.62256 6.62018 0.00195926
ltoes 1.45614 -0 0
rfemur -4.14642 -0.846102 19.7516
rtibia 54.6919 -0 0
rfoot 13.307 -3.14121 0.167045
rtoes -10.7937 0 0
lowerback -5.4374 2.05187 -1.20771
upperback -4.50895 2.79019 1.13411
thorax -1.71377 1.44596 1.95209
lowerneck -15.7194 -5.28997 -14.9595
upperneck 22.5829 -6.85354 13.2789
head 10.8641 -2.95758 6.41487
lclavicle 1.62133e-14 1.92159e-15 0
lhumerus -42.9687 -3.65203 89.0706
lradius 19.2498 -0 0
lwrist -5.27099 0 0
lhand -12.5953 -25.0928 0.00158899
lfingers 7.12502 0 0
lthumb 13.4831 4.44763 0.000847408
rclavicle 1.62133e-14 1.92159e-15 0
rhumerus -46.5372 9.94586 -90.6184
rradius 29.9389 -0 0
rwrist -12.6743 0 0
rhand -33.7001 -19.4499 -0.139358
rfingers 7.12502 0 0
rthumb -6.88927 -49.2877 -0.137456
438
root 10.5291 17.2324 25.7387 7.91251 -1.84328 -0.537992
lfemur -32.5071 4.18695 -24.8212
ltibia 31.4381 -0 0
lfoot -6.8677 6.5057 0.00122453
ltoes 0.892167 -0 0
rfemur -5.78814 -0.924137 19.9254
rtibia 56.916 -0 0
rfoot 11.8862 -4.82451 0.104364
rtoes -10.2538 0 0
lowerback -5.14952 1.9149 -1.09303
upperback -4.48389 2.60266 1.21603
thorax -1.83731 1.35121 1.95293
lowerneck -16.2196 -5.2336 -14.7644
upperneck 22.7136 -6.71556 13.0851
head 10.9711 -2.88195 6.32947
lclavicle 2.24316e-14 4.34013e-15 0
lhumerus -41.9127 -3.92461 89.2299
lradius 19.1485 -0 0
lwrist -5.16578 0 0
lhand -12.9881 -25.1508 0.000993106
lfingers 7.12502 0 0
lthumb 13.1046 4.41557 0.000529624
rclavicle 2.24316e-14 4.34013e-15 0
rhumerus -46.5411 9.98263 -90.5494
rradius 29.997 -0 0
rwrist -12.3565 0 0
rhand -34.9944 -17.9083 -0.0870718
rfingers 7.12502 0 0
rthumb -8.13889 -47.7128 -0.0858838
439
root 10.5433 17.2543 25.847 7.93048 -1.78989 -0.631935
lfemur -31.971 4.27498 -24.7621
ltibia 31.1109 0 0
lfoot -7.11285 6.39123 0
ltoes 0.328199 0 0
rfemur -7.43012 -0.997162 20.1013
rtibia 59.1401 0 0
rfoot 10.4679 -6.50573 0
rtoes -9.71383 0 0
lowerback -4.86194 1.77736 -0.979049
upperback -4.4591 2.4151 1.29785
thorax -1.96084 1.25646 1.95397
lowerneck -16.7197 -5.17553 -14.5697
upperneck 22.8437 -6.57714 12.8916
head 11.078 -2.80616 6.24422
lclavicle 2.86498e-14 6.75868e-15 0
lhumerus -40.8572 -4.20007 89.3841
lradius 19.0471 0 0
lwrist -5.06057 0 0
lhand -13.3808 -25.2087 0
lfingers 7.12502 0 0
lthumb 12.7261 4.3835 0
rclavicle 2.86498e-14 6.75868e-15 0
rhumerus -46.545 10.0194 -90.4803
rradius 30.0551 0 0
rwrist -12.0386 0 0
rhand -36.2869 -16.3683 0
rfingers 7.12502 0 0
rthumb -9.38662 -46.1393 0
440
root 10.5712 17.283 26.0081 7.60422 -1.57453 -0.162818
lfemur -30.4859 4.32077 -25.4003
ltibia 30.357 -0 0
lfoot -7.50213 6.12277 0.00456062
ltoes 0.340429 -0 0
rfemur -7.98941 -1.35873 19.4462
rtibia 59.7934 -0 0
rfoot 9.02427 -6.64839 0.00899805
rtoes -10.1367 0 0
lowerback -5.06013 1.54707 -1.25225
upperback -4.27756 2.11802 1.22093
thorax -1.65371 1.10792 2.02114
lowerneck -16.6124 -5.03875 -14.4223
upperneck 22.9239 -6.39694 12.7069
head 11.0451 -2.73498 6.17823
lclavicle 2.18621e-14 5.63223e-15 0
lhumerus -40.0216 -4.68127 89.557
lradius 19.155 -0 0
lwrist -5.15709 0 0
lhand -13.045 -24.9161 0.0042876
lfingers 7.12502 0 0
lthumb 13.0497 4.6543 0.00382392
rclavicle 2.18621e-14 5.63223e-15 0
rhumerus -46.7261 10.1557 -90.4387
rradius 30.3387 -0 0
rwrist -12.0171 0 0
rhand -35.4547 -18.2645 -0.0690405
rfingers 7.12502 0 0
rthumb -8.58337 -48.0622 -0.0675816
441
root 10.5991 17.3117 26.1691 7.27977 -1.3565 0.30502
lfemur -29.0012 4.38303 -26.0371
ltibia 29.6032 -0 0
lfoot -7.89144 5.85429 0.00729712
ltoes 0.352659 -0 0
rfemur -8.54462 -1.72664 18.7946
rtibia 60.4466 -0 0
rfoot 7.58062 -6.79123 0.0143992
rtoes -10.5597 0 0
lowerback -5.25721 1.31585 -1.52462
upperback -4.09566 1.82119 1.14308
thorax -1.34677 0.959013 2.0875
lowerneck -16.5049 -4.90225 -14.2747
upperneck 23.0036 -6.21648 12.5226
head 11.012 -2.66383 6.1122
lclavicle 1.50745e-14 4.50579e-15 0
lhumerus -39.1869 -5.16493 89.7229
lradius 19.2629 -0 0
lwrist -5.25361 0 0
lhand -12.7093 -24.6234 0.00686027
lfingers 7.12502 0 0
lthumb 13.3733 4.92512 0.00611835
rclavicle 1.50745e-14 4.50579e-15 0
rhumerus -46.9071 10.2921 -90.3975
rradius 30.6223 -0 0
rwrist -11.9955 0 0
rhand -34.6207 -20.1615 -0.110501
rfingers 7.12502 0 0
rthumb -7.77831 -49.9859 -0.108166
442
root 10.627 17.3404 26.3301 6.95714 -1.13584 0.771577
lfemur -27.5172 4.46172 -26.6722
ltibia 28.8493 -0 0
lfoot -8.28075 5.58579 0.00820931
ltoes 0.36489 -0 0
rfemur -9.09572 -2.10083 18.1464
rtibia 61.0998 -0 0
rfoot 6.13696 -6.93416 0.0162
rtoes -10.9826 0 0
lowerback -5.45316 1.08369 -1.79617
upperback -3.91338 1.5246 1.0643
thorax -1.04001 0.809757 2.15307
lowerneck -16.3969 -4.76602 -14.1268
upperneck 23.0826 -6.03577 12.3385
head 10.9789 -2.59272 6.04613
lclavicle 8.2868e-15 3.37934e-15 0
lhumerus -38.3529 -5.65095 89.8819
lradius 19.3708 -0 0
lwrist -5.35013 0 0
lhand -12.3735 -24.3308 0.00771784
lfingers 7.12502 0 0
lthumb 13.6969 5.19595 0.00688317
rclavicle 8.2868e-15 3.37934e-15 0
rhumerus -47.0882 10.4287 -90.3568
rradius 30.9059 -0 0
rwrist -11.974 0 0
rhand -33.7858 -22.059 -0.124327
rfingers 7.12502 0 0
rthumb -6.97233 -51.91 -0.121701
443
root 10.6549 17.3691 26.4912 6.63634 -0.912562 1.23685
lfemur -26.034 4.55678 -27.3051
ltibia 28.0954 -0 0
lfoot -8.67005 5.31729 0.00729712
ltoes 0.37712 -0 0
rfemur -9.64271 -2.48121 17.5017
rtibia 61.7531 -0 0
rfoot 4.69329 -7.07708 0.0143992
rtoes -11.4055 0 0
lowerback -5.648 0.850603 -2.06691
upperback -3.73072 1.22827 0.984593
thorax -0.733431 0.660152 2.21783
lowerneck -16.2887 -4.63007 -13.9787
upperneck 23.161 -5.85481 12.1548
head 10.9457 -2.52165 5.98003
lclavicle 1.49913e-15 2.25289e-15 0
lhumerus -37.5196 -6.13922 90.0339
lradius 19.4787 -0 0
lwrist -5.44664 0 0
lhand -12.0377 -24.0381 0.00686027
lfingers 7.12502 0 0
lthumb 14.0205 5.46677 0.00611835
rclavicle 1.49913e-15 2.25289e-15 0
rhumerus -47.2692 10.5654 -90.3164
rradius 31.1894 -0 0
rwrist -11.9525 0 0
rhand -32.9509 -23.9564 -0.110501
rfingers 7.12502 0 0
rthumb -6.16635 -53.834 -0.108166
444
root 10.6828 17.3978 26.6523 6.31738 -0.686691 1.70084
lfemur -24.5517 4.66814 -27.9354
ltibia 27.3416 -0 0
lfoot -9.05936 5.04881 0.00456062
ltoes 0.38935 -0 0
rfemur -10.1855 -2.86769 16.8605
rtibia 62.4064 -0 0
rfoot 3.24964 -7.21992 0.00899805
rtoes -11.8284 0 0
lowerback -5.84173 0.616602 -2.33684
upperback -3.54766 0.932192 0.903944
thorax -0.427032 0.510204 2.28179
lowerneck -16.1801 -4.4944 -13.8304
upperneck 23.2388 -5.6736 11.9713
head 10.9125 -2.45062 5.91389
lclavicle -5.28853e-15 1.12645e-15 0
lhumerus -36.6867 -6.62963 90.1789
lradius 19.5866 -0 0
lwrist -5.54316 0 0
lhand -11.702 -23.7454 0.0042876
lfingers 7.12502 0 0
lthumb 14.3441 5.73759 0.00382392
rclavicle -5.28853e-15 1.12645e-15 0
rhumerus -47.4502 10.7022 -90.2765
rradius 31.473 -0 0
rwrist -11.9309 0 0
rhand -32.1169 -25.8534 -0.0690405
rfingers 7.12502 0 0
rthumb -5.36129 -55.7577 -0.0675816
445
root 10.7107 17.4265 26.8133 6.00027 -0.458248 2.16355
lfemur -23.0705 4.7957 -28.5627
ltibia 26.5877 0 0
lfoot -9.44864 4.78035 0
ltoes 0.40158 0 0
rfemur -10.7242 -3.26021 16.2227
rtibia 63.0596 0 0
rfoot 1.80601 -7.36258 0
rtoes -12.2513 0 0
lowerback -6.03434 0.381693 -2.60597
upperback -3.3642 0.636374 0.822356
thorax -0.120806 0.359915 2.34495
lowerneck -16.0712 -4.35901 -13.6819
upperneck 23.316 -5.49214 11.7882
head 10.8791 -2.37963 5.84771
lclavicle -1.20762e-14 0 0
lhumerus -35.8543 -7.12209 90.3168
lradius 19.6945 0 0
lwrist -5.63968 0 0
lhand -11.3662 -23.4528 0
lfingers 7.12502 0 0
lthumb 14.6677 6.00839 0
rclavicle -1.20762e-14 0 0
rhumerus -47.6312 10.8391 -90.237
rradius 31.7566 0 0
rwrist -11.9094 0 0
rhand -31.2847 -27.7496 0
rfingers 7.12502 0 0
rthumb -4.55804 -57.6806 0
